<svg width="1058" height="625" viewBox="0 0 1058 625" fill="none" xmlns="http://www.w3.org/2000/svg">
<path d="M1053.54 510.618C1065.21 553.951 1050.87 583.785 1010.54 600.118C970.206 616.451 930.706 624.451 892.039 624.118C853.372 623.785 817.539 612.951 784.539 591.618C751.539 570.285 730.539 540.618 721.539 502.618C712.539 464.618 720.706 432.451 746.039 406.118C771.372 379.785 789.372 340.951 800.039 289.618C810.706 238.285 840.039 216.618 888.039 224.618C936.039 232.618 973.039 253.785 999.039 288.118C1025.04 322.451 1037.71 357.285 1037.04 392.618C1036.37 427.951 1041.87 467.285 1053.54 510.618Z" fill="#1A1A1A"/>
<path d="M376.867 192.728C372.2 238.062 348.867 272.395 306.867 295.728C264.867 319.062 222.534 323.062 179.867 307.728C137.2 292.395 94.7002 271.395 52.3669 244.728C10.0336 218.062 -6.63312 179.728 2.36688 129.728C11.3669 79.7284 35.2002 44.3951 73.8669 23.7284C112.534 3.06173 147.867 -4.10494 179.867 2.22839C211.867 8.56173 234.867 21.8951 248.867 42.2284C262.867 62.5617 288.867 81.3951 326.867 98.7284C364.867 116.062 381.534 147.395 376.867 192.728Z" fill="#1A1A1A"/>
</svg>
